#!OML:ASF X:\für Bonn\!DataBase\2005_08_12_Daniel\c3d\Daniel.ASF
:FULLY-SPECIFIED
:DEGREES
277
root 21.5913 1.33685 -0.130823 -1264.9 264.225 66.0105
lowerback 33.9876 -0.885731 0.625578
upperback 15.926 -2.84911 -3.33999
thorax -0.0552957 -2.28795 -2.96495
lowerneck 12.33 10.6396 -6.52616
upperneck 10.1344 13.0029 -1.98256
head 0.941548 5.96016 0.0288095
rclavicle 2.00773e-014 1.4064e-014
rhumerus -402.281 26.863 248.666
rradius 92.8915
rwrist 1.71256
rhand -5.56085 748.286
rfingers 7.12502
rthumb 20.2545 719.322
lclavicle 2.00773e-014 1.4064e-014
lhumerus -377.203 -19.5123 -270.007
lradius 113.681
lwrist 14.6402
lhand -21.8837 -738.443
lfingers 7.12502
lthumb 4.52112 11.4885
rfemur 5.0718 -9.55301 10.3874
rtibia 58.4118
rfoot 377.994 2.4461
rtoes 13.0829
lfemur -31.0967 23.8363 -13.613
ltibia 119.132
lfoot 31.8153 -12.5049
ltoes 0.973607
278
root 21.6163 1.3331 -0.131859 -1264.79 264.285 65.468
lowerback 33.8198 -0.925619 0.54773
upperback 15.7384 -2.89461 -3.29358
thorax -0.197367 -2.30063 -2.85818
lowerneck 11.9243 10.346 -6.68773
upperneck 10.0274 12.6456 -2.07253
head 0.969182 5.78438 0.0561221
rclavicle 8.64713e-014 -1.39646e-013
rhumerus -403.037 26.2033 248.903
rradius 92.9571
rwrist 2.93059
rhand -4.9354 748.815
rfingers 7.12502
rthumb 20.8555 719.916
lclavicle 8.64713e-014 -1.39646e-013
lhumerus -377.511 -19.6843 -270.257
lradius 113.578
lwrist 14.2902
lhand -21.6531 -738.093
lfingers 7.12502
lthumb 4.74376 11.8341
rfemur 5.18971 -9.41615 10.1341
rtibia 59.3424
rfoot 376.665 3.14109
rtoes 12.1814
lfemur -30.8582 22.8405 -13.4256
ltibia 118.965
lfoot 31.5476 -12.8952
ltoes 1.07332
279
root 21.6373 1.32862 -0.132558 -1264.53 264.353 64.8102
lowerback 33.6892 -0.963454 0.525104
upperback 15.5297 -2.91927 -3.25091
thorax -0.375956 -2.29756 -2.78868
lowerneck 11.6723 10.0466 -6.78738
upperneck 9.77072 12.2684 -2.23898
head 0.935606 5.60739 0.0397004
rclavicle 4.79071e-014 3.67006e-014
rhumerus -403.648 25.6165 249.21
rradius 92.7994
rwrist 4.02278
rhand -4.34805 749.083
rfingers 7.12502
rthumb 21.4197 720.247
lclavicle 4.79071e-014 3.67006e-014
lhumerus -377.887 -19.9259 -270.518
lradius 113.476
lwrist 13.9029
lhand -21.3569 -737.773
lfingers 7.12502
lthumb 5.02979 12.1473
rfemur 5.2511 -9.30247 9.8918
rtibia 60.2541
rfoot 375.413 3.65745
rtoes 11.4205
lfemur -30.6683 21.8777 -13.2286
ltibia 118.852
lfoot 31.2628 -13.126
ltoes 1.4194
280
root 21.6576 1.32467 -0.132983 -1264.17 264.413 64.0615
lowerback 33.6113 -1.01076 0.543291
upperback 15.3245 -2.9467 -3.20821
thorax -0.5706 -2.29486 -2.73847
lowerneck 11.296 9.73941 -6.89186
upperneck 9.52425 11.8959 -2.43471
head 0.925908 5.43156 0.0210965
rclavicle 5.38706e-014 -3.94588e-014
rhumerus -404.069 25.1586 249.614
rradius 92.4422
rwrist 4.97256
rhand -3.64925 749.053
rfingers 7.12502
rthumb 22.0907 720.294
lclavicle 5.38706e-014 -3.94588e-014
lhumerus -378.283 -20.1756 -270.795
lradius 113.388
lwrist 13.5046
lhand -20.9834 -737.422
lfingers 7.12502
lthumb 5.3904 12.4892
rfemur 5.30188 -9.23913 9.63163
rtibia 61.1185
rfoot 374.223 4.10936
rtoes 10.8514
lfemur -30.5117 20.9251 -13.0158
ltibia 118.78
lfoot 31.0386 -13.3346
ltoes 1.72566
281
root 21.6769 1.32079 -0.133288 -1263.95 264.477 63.5112
lowerback 33.5548 -1.04534 0.560635
upperback 15.115 -2.95829 -3.16517
thorax -0.776458 -2.28406 -2.69155
lowerneck 10.753 9.37661 -6.85507
upperneck 9.31998 11.4919 -2.8325
head 0.9757 5.2389 -0.0688367
rclavicle 4.44781e-015 4.9634e-015
rhumerus -404.372 24.7134 250.118
rradius 92.0264
rwrist 5.77341
rhand -2.69562 748.744
rfingers 7.12502
rthumb 23.0061 720.097
lclavicle 4.44781e-015 4.9634e-015
lhumerus -378.695 -20.4515 -271.1
lradius 113.29
lwrist 13.0901
lhand -20.5692 -737.136
lfingers 7.12502
lthumb 5.79029 12.7647
rfemur 5.28958 -9.2352 9.31042
rtibia 61.9465
rfoot 373.152 4.57705
rtoes 10.0212
lfemur -30.403 19.9897 -12.8572
ltibia 118.738
lfoot 30.8372 -13.446
ltoes 2.08017
282
root 21.6987 1.31705 -0.134291 -1263.84 264.519 63.094
lowerback 33.5787 -1.08167 0.56943
upperback 14.8824 -2.97708 -3.11866
thorax -1.0357 -2.27791 -2.63083
lowerneck 10.1037 9.03943 -6.90378
upperneck 9.17738 11.123 -3.09184
head 1.04711 5.05889 -0.101465
rclavicle 1.40454e-014 -1.68563e-014
rhumerus -404.62 24.2657 250.668
rradius 91.5674
rwrist 6.3811
rhand -1.44593 748.22
rfingers 7.12502
rthumb 24.2047 719.728
lclavicle 1.40454e-014 -1.68563e-014
lhumerus -379.121 -20.7194 -271.385
lradius 113.122
lwrist 12.7232
lhand -20.1357 -736.886
lfingers 7.12502
lthumb 6.20881 13.0032
rfemur 5.26849 -9.30581 8.94992
rtibia 62.734
rfoot 372.072 5.17427
rtoes 8.87707
lfemur -30.3531 19.0749 -12.7167
ltibia 118.742
lfoot 30.63 -13.53
ltoes 2.46166
283
root 21.7218 1.31344 -0.134965 -1263.65 264.558 62.6739
lowerback 33.62 -1.12202 0.583476
upperback 14.6198 -2.99779 -3.06599
thorax -1.33321 -2.27097 -2.56421
lowerneck 9.3252 8.77761 -7.17158
upperneck 9.10684 10.8423 -2.98069
head 1.12779 4.91859 0.0124703
rclavicle -5.57591e-014 1.22656e-013
rhumerus -404.809 23.8195 251.316
rradius 91.0811
rwrist 6.82165
rhand 0.0426067 747.549
rfingers 7.12502
rthumb 25.6312 719.255
lclavicle -5.57591e-014 1.22656e-013
lhumerus -379.57 -20.9538 -271.693
lradius 112.869
lwrist 12.3973
lhand -19.6855 -736.81
lfingers 7.12502
lthumb 6.64339 13.0662
rfemur 5.16603 -9.40043 8.59262
rtibia 63.4929
rfoot 371.087 5.72986
rtoes 8.12156
lfemur -30.398 18.1524 -12.6092
ltibia 118.771
lfoot 30.4439 -13.465
ltoes 2.85119
